<?xml version="1.0" encoding="UTF-8"?>
<svg id="Layer_2" data-name="Layer 2" xmlns="http://www.w3.org/2000/svg" viewBox="0 0 269.44 35.84">
  <defs>
    <style>
      .cls-1 {
        fill: #fff;
      }

      .cls-2 {
        fill: #e30613;
      }
    </style>
  </defs>
  <g id="Calque_1" data-name="Calque 1">
    <g>
      <polygon class="cls-1" points="6.7 0 3.07 7.28 45.77 7.28 0 35.84 18.71 35.84 64.47 7.28 68.12 0 6.7 0"/>
      <path class="cls-1" d="M128.42,0h-55.16l-3.58,7.28h41.32l-3.21,6.78h-33.81c-4.74,0-9.07,2.7-11.16,6.96l-7.27,14.82h61.42l3.66-7.31h-41.98l3.52-7.02v.03h33.98c4.76,0,9.12-2.69,11.25-6.95l3.66-7.3.84-1.73c1.25-2.57-.62-5.56-3.47-5.56Z"/>
      <path class="cls-1" d="M196.02,0h-47.88c-4.5,0-8.61,2.55-10.61,6.58l-11.68,23.52c-1.31,2.64.61,5.74,3.56,5.74h47.93c4.39,0,8.4-2.49,10.34-6.42l11.8-23.84c1.27-2.57-.6-5.58-3.46-5.58ZM168.4,28.53h-22.14l10.46-21.19h22.06l-10.38,21.19Z"/>
      <path class="cls-2" d="M265.79,7.28l3.66-7.28h-53.92c-4.66,0-8.92,2.64-11,6.81l-4.33,8.68c-1.38,2.78.64,6.04,3.74,6.04h35.12l-3.39,6.99h-41.78l-3.5,7.31h53.75c4.66,0,8.92-2.88,11-7.05l4.45-8.93c1.33-2.66-.61-5.79-3.59-5.79h-35.35l3.33-6.78h41.82Z"/>
    </g>
  </g>
</svg>