<svg width="148" height="54" viewBox="0 0 148 54" fill="none" xmlns="http://www.w3.org/2000/svg">
<path fill-rule="evenodd" clip-rule="evenodd" d="M25.478 53.0648C34.3707 42.496 42.8145 31.8706 49.8781 21.0457C50.3204 20.3838 50.051 20.2175 48.9136 20.6567C41.9564 22.5623 35.1788 24.1218 28.4179 25.6649C28.0952 25.7148 27.9123 25.9843 27.7793 26.3468C25.5777 29.985 23.274 33.5469 20.5328 36.8358C15.0755 43.0313 10.0338 45.0599 5.23508 44.7107C0.333054 43.4037 -0.940659 40.7866 0.642342 37.1584C3.16991 30.9559 9.9374 28.4452 16.602 25.8577L25.5479 23.2207C26.6347 22.5888 26.9114 22.2262 27.2007 21.7807C31.5971 15.1687 35.1056 10.8726 39.705 6.6791C45.4982 1.97993 50.48 -0.298022 54.587 0.0311269C58.4481 0.443511 61.0089 2.16283 59.6554 7.85288C58.7573 10.4769 57.7232 13.0209 56.5824 15.4821C56.0205 16.3433 56.1534 16.7256 57.6533 16.1205L71.1253 13.8126C71.7473 13.7826 72.1763 13.9223 71.724 14.8267L71.1719 15.5386C70.9058 15.8744 70.5434 16.1172 70.0146 16.1869C63.4066 19.4461 60.0576 23.5199 57.3441 27.7401C55.6314 30.9094 55.5482 32.549 59.6686 30.2477C65.372 25.971 69.7287 19.9316 74.1084 13.9289C74.3578 13.5532 74.5872 13.5831 74.81 13.8857C75.2093 14.3845 75.4021 14.5109 75.176 14.9066C72.9111 19.7387 70.6232 24.5743 67.7797 29.5193C67.1878 30.3773 67.2909 30.5869 68.3851 29.9151L73.3836 27.1515C74.0286 26.8323 74.1816 26.3235 74.3013 25.7913C77.3343 19.6357 81.1488 15.3124 85.9244 13.2836C88.7178 12.6352 90.4673 13.0908 88.1958 17.7866C85.5185 21.4548 81.9368 24.7006 77.0916 27.351C76.0439 27.7901 76.8555 29.5927 78.4649 28.4352C84.6905 25.4188 91.0325 19.3264 97.4141 12.4789C97.7301 12.1996 98.046 12.4257 98.362 12.7483C99.1339 12.5089 99.3668 12.7782 99.1772 13.4335C98.4153 15.9808 97.4439 18.2555 96.1936 20.2009C95.9742 20.7598 95.9977 21.0225 96.6531 20.4869C101.129 14.1285 106.799 11.4812 113.361 11.7008C113.71 11.8139 113.923 11.9835 113.77 12.4424L113.108 13.889C112.892 14.2681 112.399 14.564 111.698 14.7769C110.74 14.7702 109.517 16.0174 108.196 17.6702C106.566 19.4594 106.084 21.2952 105.831 23.1442C105.589 24.807 106.457 24.8169 108.505 23.0844C111.625 19.619 113.833 15.7115 115.572 11.5911C115.845 11.3581 116.124 11.408 116.39 11.7208C116.74 11.6975 116.985 11.8671 117.109 12.2727C116.048 15.7447 115.263 19.2765 114.774 22.8549C114.514 24.4279 114.901 25.3524 117.205 24.3481L128.186 20.7631C129.101 20.5434 129.291 20.9127 128.689 21.7574L128.243 22.2961C128.09 22.4592 127.814 22.6221 127.458 22.7817L117.551 26.533C116.36 26.9653 115.173 27.1815 113.993 27.3377C112.925 27.4142 112.167 27.095 112.403 25.5286L112.902 22.4891C113.234 21.1056 113.118 20.7431 112.14 22.3393C110.032 25.1728 107.947 27.5738 105.921 28.3022C103.959 28.8509 102.389 28.7544 102.476 25.9977C102.622 21.9269 104.415 19.1468 106.41 16.5494C107.451 15.3025 107.361 14.8168 105.798 15.6283C103.238 16.5295 98.0659 21.518 91.4748 29.6857L90.9693 30.2144C90.61 30.5537 90.1911 30.6999 89.6891 30.7831L88.4189 30.8961C87.2445 30.9826 87.6203 30.1612 88.3422 29.476C90.953 26.1872 92.5518 23.387 93.4771 21.069C94.0224 19.9682 94.0486 19.4993 92.4859 21.0192C86.6261 26.8056 81.2685 31.0857 76.8187 32.6121C74.0652 33.457 73.4367 32.3994 73.0242 31.1455C72.9178 29.6358 72.8979 29.3763 71.8172 30.1612L65.6247 33.9158C65.229 34.1918 64.6671 34.7571 64.2213 35.6185C57.3607 45.5554 51.4077 50.6603 46.4394 50.494C42.8544 50.1049 42.4186 48.4288 44.4307 45.7449C47.5999 41.5181 55.259 37.2116 62.9909 32.8981C63.5995 32.559 63.9187 32.0502 64.258 31.5481L65.5815 29.8121C66.5227 28.6181 65.9074 27.7168 64.4243 29.7489C60.9091 33.0777 57.3973 36.4332 53.503 36.6128C51.4975 36.6194 51.0619 35.3326 51.4975 33.3372C53.4197 27.5106 56.8351 22.7984 61.6141 19.1103C63.5828 17.7301 63.6892 16.8121 61.3913 17.7401L54.6768 19.1735C54.2977 19.3364 53.9154 19.8784 53.523 20.4437C45.7343 32.0069 37.0477 42.7586 27.8923 53.0681C27.5299 53.5835 27.1741 53.9094 26.8383 53.8495C25.4348 53.9559 25.1056 53.6434 25.478 53.0648ZM49.4024 46.7427C50.6728 46.224 51.9599 45.4955 53.2534 44.5678C55.2122 42.9914 57.2044 40.8963 59.1997 38.5283C60.2539 37.4178 59.4458 37.3611 58.7373 37.973L55.924 39.709L51.8402 42.6124C50.6562 43.427 49.6518 44.3716 48.7906 45.4057C47.9557 46.5499 48.5178 47.042 49.4024 46.7427ZM17.6329 34.8436C19.635 32.672 21.6038 30.4804 23.4162 28.1626C24.3639 26.8688 23.6789 26.8921 22.6877 27.1615C18.3513 28.2989 14.2575 29.8952 10.4563 32.0668C8.56069 33.171 6.67508 34.6773 5.72058 36.2437C4.61307 38.5283 5.69061 39.3632 7.2737 39.8553C9.9839 39.9019 13.2763 38.6051 17.6329 34.8436ZM79.1002 23.8092C81.6841 22.1065 84.0588 20.0779 86.0408 17.4874C86.9619 16.1537 86.2237 16.0273 85.3789 16.5328C84.8369 16.8554 84.2915 17.2147 83.746 17.6702C82.3826 18.9507 81.1288 20.2741 79.9714 21.6211L78.6079 23.2971C78.1224 23.9422 78.0193 24.3215 79.1002 23.8092ZM32.2124 21.6377L37.0377 20.4071L51.2348 17.3876C51.807 17.3011 52.2027 17.085 52.3856 16.719C53.6792 13.8225 54.4573 11.4512 54.8231 9.51243C54.72 6.47625 53.3067 4.89325 50.2106 5.16922C44.2909 5.66475 39.1364 11.0921 34.0848 17.0949L31.4109 20.557C30.6992 21.4447 30.1206 22.2728 32.2124 21.6377Z" fill="white"/>
<path fill-rule="evenodd" clip-rule="evenodd" d="M112.313 43.7065L114.707 38.971L119.088 28.2393C119.274 27.7936 119.48 27.4476 120.058 27.2847L122.805 26.2207C124.119 25.8646 124.555 26.2439 123.75 27.6339L121.834 32.077C121.326 33.1745 121.611 33.394 123.121 32.2831C128.625 28.7945 134.083 25.1065 139.5 21.2987C141.069 20.1246 140.85 19.1171 138.642 19.8121L129.846 22.1865L131.758 19.5128C135.436 18.1359 139.098 16.9821 142.739 16.4565C148.14 15.459 149.992 16.8455 145.383 20.9861C139.48 26.3703 132.935 30.7933 125.945 34.5112C124.691 35.0834 124.012 35.5822 125.705 35.6752C131.721 35.775 137.757 35.7152 143.79 35.549C144.811 35.4824 145.669 35.662 144.944 36.9757C144.189 38.0863 142.307 38.6452 141.169 38.462C134.219 38.6618 127.285 38.5786 120.348 38.4886C119.337 38.5252 119.098 38.6817 118.679 39.6859L117.79 42.0138C116.939 43.6933 115.831 43.9794 114.661 43.8828L112.313 43.7065Z" fill="#C3152F"/>
</svg>
