<svg width="148" height="14" viewBox="0 0 148 14" fill="none" xmlns="http://www.w3.org/2000/svg">
<path d="M138.272 0H130.803L121.075 13.5352H124.398L128.318 8.08241H139.466L143.386 13.5352H148L138.272 0ZM129.98 5.77546L132.464 2.30696H135.32L137.82 5.77546H129.98Z" fill="#F0EEFF"/>
<path d="M113.331 7.90495C114.444 7.90495 117.816 7.74362 117.816 4.83976V3.21038C117.816 1.75845 117.042 0 113.331 0H97.0373V13.6481H99.8444V7.88882H108.524L114.557 13.6965H119.171L113.138 7.88882H113.331V7.90495ZM99.8444 5.64639V2.29082H112.428C113.96 2.29082 114.799 2.678 114.799 3.96861C114.799 5.11402 114.154 5.64639 112.767 5.64639H99.8444Z" fill="#F0EEFF"/>
<path d="M92.0685 8.35666C92.0685 9.72793 91.7297 11.68 87.7772 11.68H80.7273C76.8716 11.68 76.5812 9.0181 76.5812 8.3244V0.0161335H73.5161V8.3244C73.5161 11.3251 75.0809 13.9385 80.7273 13.9385H87.7772C94.5368 13.9385 95.1337 11.3251 95.1337 8.35666V0H92.0685V8.35666Z" fill="#F0EEFF"/>
<path d="M51.0756 2.30696H59.5775V13.6643H63.0944V2.30696H71.6608V0H51.0756V2.30696Z" fill="#F0EEFF"/>
<path d="M44.9937 7.90495C46.1068 7.90495 49.4785 7.74362 49.4785 4.83976V3.21038C49.4785 1.75845 48.7042 0 44.9937 0H28.6998V13.6481H31.5069V7.88882H40.1862L46.2198 13.6965H50.8337L44.8001 7.88882H44.9937V7.90495ZM31.4908 5.64639V2.29082H44.0741C45.6067 2.29082 46.4456 2.678 46.4456 3.96861C46.4456 5.11402 45.8003 5.64639 44.4129 5.64639H31.4908Z" fill="#F0EEFF"/>
<path d="M9.72793 0L0 13.5352H3.33944L7.25965 8.08241H18.4072L22.3275 13.5352H26.9414L17.2296 0H9.72793ZM8.90517 5.77546L11.3896 2.30696H14.245L16.7456 5.77546H8.90517Z" fill="#F0EEFF"/>
</svg>
