<svg width="192" height="28" viewBox="0 0 192 28" fill="none" xmlns="http://www.w3.org/2000/svg">
<g opacity="0.2">
<path fill-rule="evenodd" clip-rule="evenodd" d="M32 27.6263V24.9389H33.484C34.2256 24.9389 35.7103 24.7895 35.7103 22.9976V6.87148C35.7103 5.90085 35.6357 3.58649 33.7809 3.58649H32.0746L34.0039 0.152134H148.158V3.58649H43.1308C42.1661 3.58649 40.9045 3.81022 40.9045 5.75147V10.8283C41.1276 11.4252 42.0177 11.6489 42.4631 11.6489C42.9085 11.6489 44.4663 11.5745 44.4663 9.1108H46.6926V17.3983H44.4663C44.4663 16.6514 43.6467 15.4006 42.5376 15.3077C41.6468 15.2333 40.9045 15.5314 40.9045 16.7264V22.9976C40.9045 23.6702 41.7207 24.9389 43.6501 24.9389H44.9863V27.6263H32Z" fill="#F0EEFF"/>
<path fill-rule="evenodd" clip-rule="evenodd" d="M97.8777 7.46831C97.8777 8.06583 98.6194 8.66266 99.0641 8.81204C99.584 8.43893 102.33 6.87148 104.481 6.87148C106.633 6.87148 107.746 7.9908 107.746 9.70832V17.9208H102.551V11.5752C102.551 10.754 102.33 10.1565 101.587 10.0821C100.845 10.0078 98.9156 11.5752 98.397 12.3221V23.6702C98.397 24.7158 99.4356 25.462 100.326 25.462V27.6277H91.2741V25.3877C92.1642 25.3877 93.1289 25.0889 93.2034 23.7452V11.1264C93.2034 10.7533 92.6096 9.70763 91.2741 9.70763V7.46831H97.8777ZM160 7.46831H150.948V9.70832C152.283 9.70832 152.876 10.7533 152.876 11.1271V23.7445C152.803 25.0883 151.838 25.387 150.948 25.387V27.627H160V25.4614C159.11 25.4614 158.071 24.7151 158.071 23.6695V11.2758C158.071 10.3802 159.035 9.70832 160 9.70832V7.46831ZM77.8431 7.46831C77.8431 8.06583 78.5847 8.66266 79.0301 8.81204C79.5494 8.43893 82.295 6.87148 84.4467 6.87148C86.5984 6.87148 87.7116 7.9908 87.7116 9.70832V17.9208H82.518V11.5752C82.518 10.754 82.295 10.1565 81.5533 10.0821C80.811 10.0078 78.8816 11.5752 78.3623 12.3221V23.6702C78.3623 24.7158 79.4016 25.462 80.2917 25.462V27.6277H71.2394V25.3877C72.1295 25.3877 73.0942 25.0889 73.1688 23.7452V11.1264C73.1688 10.7533 72.5749 9.70763 71.2394 9.70763V7.46831H77.8431ZM138.035 7.46831C138.035 8.06583 138.778 8.66266 139.223 8.81204C139.743 8.43893 142.487 6.87148 144.64 6.87148C146.792 6.87148 147.904 7.9908 147.904 9.70832V17.9208H142.71V11.5752C142.71 10.754 142.487 10.1565 141.746 10.0821C141.004 10.0078 139.075 11.5752 138.555 12.3221V23.6702C138.555 24.7158 139.593 25.462 140.484 25.462V27.6277H131.431V25.3877C132.322 25.3877 133.287 25.0889 133.36 23.7452V11.1264C133.36 10.7533 132.767 9.70763 131.431 9.70763V7.46831H138.035ZM67.3211 21.3551H62.1269V23.3714C62.1269 24.192 61.9784 25.9102 59.5298 25.9102C57.0811 25.9102 56.3395 24.267 56.3395 23.0727V18.817C56.3395 18.4439 56.6364 17.9208 57.1557 17.9208H67.3211V12.4708C67.3211 10.0071 66.8019 9.26018 65.7626 8.21521C64.724 7.16955 61.0876 6.87148 59.4552 6.87148C55.3002 6.87148 53.964 7.46831 52.777 8.43893C51.5899 9.40956 51.1445 11.4252 51.1445 12.9183V21.3544C51.1445 23.5938 51.5899 25.1619 52.9993 26.5807C54.4087 27.9994 58.7129 27.9994 59.6037 27.9994C60.4938 27.9994 63.4617 28.0738 65.6141 26.5063C67.7665 24.9389 67.3211 21.3551 67.3211 21.3551ZM56.3395 12.0977C56.3395 10.9034 56.7103 9.11149 59.3074 9.11149C61.9046 9.11149 62.1269 11.0527 62.1269 12.0977V14.7852C62.1269 15.2326 61.7561 15.6808 61.2368 15.6808H57.2296C56.7849 15.6808 56.3395 15.3077 56.3395 14.8602V12.0977ZM126.832 23.6695V12.4708C126.832 10.7533 126.757 8.96211 124.976 7.69272C123.196 6.42334 120.302 6.49837 119.188 6.49837C118.075 6.49837 114.366 6.49837 112.658 8.43962C110.952 10.3809 111.248 12.2471 111.248 12.9933H116.109C116.109 12.9933 116.441 10.4552 117.11 9.78335C117.782 9.10735 119.559 8.36459 120.932 9.55894C121.437 9.99951 121.636 10.5667 121.636 11.2014V14.4114C121.636 14.7108 121.339 15.1583 120.969 15.1583C120.969 15.1583 114.215 15.3077 113.029 16.2039C111.842 17.0995 110.802 17.697 110.802 20.982C110.802 24.2663 111.619 25.5357 112.584 26.2083C113.549 26.8801 113.994 27.627 118.371 27.627H128.76V25.4614C127.871 25.4614 126.832 24.7151 126.832 23.6695ZM121.637 24.9389C121.637 25.1254 121.34 25.3863 121.118 25.3863H118.558C116.74 25.3863 116.221 23.8189 116.221 22.8476V19.9729C116.221 17.1739 119.114 17.2482 120.265 17.2482C121.415 17.2482 121.637 18.2182 121.637 18.8528V24.9389ZM155.133 3.54932C157.731 3.54932 159.836 2.75493 159.836 1.77466C159.836 0.795089 157.731 0 155.133 0C152.536 0 150.43 0.7944 150.43 1.77466C150.43 2.75424 152.536 3.54932 155.133 3.54932Z" fill="#F0EEFF"/>
</g>
</svg>
