<svg width="148" height="20" viewBox="0 0 148 20" fill="none" xmlns="http://www.w3.org/2000/svg">
<path fill-rule="evenodd" clip-rule="evenodd" d="M111.457 16.8476C110.734 17.6906 110.147 18.4289 109.494 19.1041C109.315 19.2893 108.939 19.3584 108.655 19.3551C104.958 19.3153 101.275 19.1091 97.6883 18.106C95.6265 17.5294 93.9133 16.4319 92.5823 14.4316C92.0363 15.0302 91.5719 15.6173 91.0283 16.1178C90.0686 17.0012 89.1303 17.9363 88.0542 18.6572C86.8225 19.4827 85.3833 19.4827 83.673 19.2235C84.4735 18.1375 85.0596 17.1719 85.8078 16.356C89.2645 12.5859 92.7655 8.85697 96.2556 5.11816C96.3974 4.96622 96.5826 4.77612 96.7657 4.75409C98.2319 4.57846 99.7027 4.43934 101.172 4.28937C101.215 4.38376 101.257 4.47782 101.299 4.57221C100.035 6.06142 98.7697 7.55063 97.4054 9.15692C98.129 9.15692 98.7207 9.21579 99.2975 9.14738C103.105 8.69647 106.916 8.24491 110.454 6.61428C110.892 6.41234 111.329 6.16535 111.696 5.85586C112.517 5.16323 112.484 4.40448 111.533 3.87234C110.889 3.51122 110.122 3.182 109.404 3.17115C106.69 3.13069 103.964 3.09945 101.261 3.30402C98.1944 3.53589 95.1483 4.02856 92.0919 4.39527C91.7361 4.43802 91.371 4.40086 90.9181 4.40086C91.4262 3.03762 92.4764 2.40516 93.6361 2.06049C98.2181 0.699549 102.901 -0.10557 107.694 0.011185C110.275 0.0740027 112.883 0.152282 115.344 1.06922C116.213 1.39285 117.165 1.76909 117.795 2.40352C119.464 4.08381 118.695 5.9588 116.842 7.34112C113.85 9.57329 110.306 10.4172 106.724 10.9944C103.838 11.4591 100.907 11.6502 97.9965 11.9633C97.8139 11.9831 97.6297 11.9969 97.4508 12.0337C96.6756 12.1935 96.5826 12.4313 97.0446 13.0651C98.2605 14.7335 100.019 15.4857 101.963 15.7455C104.893 16.1369 107.842 16.3842 110.783 16.697C110.957 16.7167 111.126 16.773 111.457 16.8476Z" fill="#F0EEFF"/>
<path fill-rule="evenodd" clip-rule="evenodd" d="M34.7959 1.07315C33.3314 2.54295 31.8271 3.3313 29.9185 3.49246C26.605 3.77234 23.2793 4.05979 20.0055 4.61857C15.7783 5.34015 11.6659 6.56033 8.1198 9.09935C7.02822 9.88079 6.06359 10.9296 5.28051 12.0271C4.45302 13.1871 4.81809 14.3083 6.12049 14.8993C7.12952 15.3574 8.23426 15.7462 9.32715 15.8531C14.2634 16.3352 19.1599 16.0869 23.8946 14.4642C25.4174 13.9422 26.8322 13.1463 27.9524 11.7558C24.4366 11.7558 21.0471 11.7558 17.6576 11.7558C17.6191 11.6897 17.5806 11.6232 17.5425 11.5568C17.8079 11.3105 18.047 11.0243 18.3436 10.824C20.1624 9.59597 22.2719 9.33615 24.3682 9.2184C26.5649 9.09507 28.7753 9.14473 30.9762 9.22071C31.5939 9.24209 32.1994 9.62195 32.8104 9.83737C32.5523 10.3846 32.4 11.0243 32.0172 11.4627C30.3115 13.4183 28.6237 15.3999 26.2504 16.6279C23.7854 17.904 21.1652 18.6628 18.44 19.0801C14.8821 19.6248 11.3097 19.5685 7.73434 19.2659C5.69918 19.0936 3.77058 18.6335 2.08832 17.3808C-0.314212 15.5916 -0.62271 13.3446 1.05429 10.8484C3.31376 7.48483 6.58521 5.57892 10.2582 4.24988C15.8089 2.24169 21.568 1.27937 27.4555 1.05342C29.3808 0.979419 31.3078 0.94127 33.2347 0.913314C33.7001 0.907723 34.1671 1.00606 34.7959 1.07315Z" fill="#F0EEFF"/>
<path fill-rule="evenodd" clip-rule="evenodd" d="M148 1.21875C147.101 2.37183 146.431 3.36573 144.923 3.32396C141.653 3.23319 138.376 3.27562 135.172 4.03469C133.97 4.31918 132.778 4.74936 131.673 5.29762C131.233 5.51534 131.04 6.23232 130.735 6.72171C131.186 6.98021 131.612 7.38771 132.093 7.4719C134.588 7.90735 137.131 8.11455 139.589 8.69241C141.218 9.07556 142.807 9.81326 144.276 10.6394C145.772 11.4817 145.826 12.9242 144.605 14.1618C142.522 16.2726 139.846 17.2623 137.036 17.7526C133.617 18.3492 130.162 18.8531 126.703 19.0606C121.793 19.355 116.865 19.3444 111.945 19.4556C111.564 19.4642 111.181 19.4076 110.635 19.3698C111.306 18.4883 111.848 17.7266 112.454 17.0202C112.597 16.8525 112.955 16.8202 113.217 16.809C115.662 16.7038 118.111 16.6719 120.552 16.514C125.881 16.1694 131.22 15.8464 136.297 13.948C136.834 13.7471 137.37 13.4945 137.83 13.16C138.085 12.9749 138.348 12.5394 138.299 12.273C138.25 12.0083 137.847 11.6787 137.546 11.6113C135.943 11.2498 134.326 10.9509 132.71 10.6503C130.22 10.1869 127.698 9.81129 125.52 8.38621C123.752 7.22951 123.634 5.91363 125.227 4.5323C127.26 2.77044 129.705 1.81732 132.307 1.29077C137.028 0.335681 141.787 0.415929 146.55 0.908603C146.965 0.95103 147.37 1.08094 148 1.21875Z" fill="#F0EEFF"/>
<path fill-rule="evenodd" clip-rule="evenodd" d="M54.8026 17.5812C55.6212 16.757 56.2816 16.043 57.0054 15.4017C57.1673 15.2583 57.5675 15.3089 57.8346 15.3708C62.5808 16.4689 67.3467 16.4794 72.1103 15.5599C72.8533 15.4165 73.6051 14.9833 74.2043 14.4999C75.339 13.5846 75.1334 12.0144 73.7482 11.6063C72.4668 11.2291 71.0667 11.2471 69.7167 11.113C69.0858 11.0498 68.4494 11.0376 67.7502 10.9985C68.4422 9.28566 69.6529 8.45521 71.2282 8.43679C73.6354 8.40884 75.9488 7.98358 78.1142 6.86207C78.7206 6.54799 78.914 6.07044 78.7358 5.51922C78.6035 5.11173 78.2974 4.61939 77.9359 4.45198C76.3898 3.73599 74.7256 3.8705 73.0703 3.92346C71.367 3.97805 69.6607 3.93563 67.6927 3.93563C69.0895 2.82037 69.737 1.03187 71.81 1.13514C74.3681 1.26242 76.9361 1.26078 79.484 1.491C80.9367 1.62223 82.0579 2.59771 82.9314 3.73204C83.8496 4.92426 83.601 6.9318 82.3361 8.05397C81.576 8.72786 80.6186 9.18206 79.7382 9.71617C79.4902 9.86647 79.2011 9.94902 78.8545 10.095C79.0295 10.3628 79.1071 10.5696 79.2544 10.693C80.7568 11.9493 80.5891 13.7306 79.5508 15.0912C78.1306 16.9524 76.1198 17.8578 73.9744 18.5416C70.4386 19.6687 66.7935 19.7134 63.1682 19.3549C60.7518 19.1158 58.3746 18.4741 55.9833 17.9956C55.6343 17.9262 55.3041 17.7608 54.8026 17.5812Z" fill="#F0EEFF"/>
<path fill-rule="evenodd" clip-rule="evenodd" d="M32.126 19.1987C36.6187 14.1072 41.1113 9.01564 45.6118 3.91556C42.4854 3.91556 39.255 3.91556 35.828 3.91556C36.787 2.57074 37.9664 1.90737 39.3284 1.66465C40.8564 1.39233 42.4143 1.16573 43.9617 1.14829C50.5053 1.07397 57.0499 1.08416 63.5941 1.0641C64.4995 1.06114 65.4049 1.06344 66.3406 1.19533C65.2145 2.61843 64.17 4.07541 62.1345 4.01325C59.0475 3.91951 55.9593 3.83828 52.875 3.68337C51.8741 3.63338 51.2022 3.92477 50.502 4.67924C47.1559 8.2855 43.7328 11.8204 40.3288 15.3727C39.5464 16.189 38.6584 16.9145 37.946 17.7854C36.4391 19.6272 34.4214 19.5565 32.3862 19.5147C32.2994 19.4092 32.2129 19.3039 32.126 19.1987Z" fill="#F0EEFF"/>
</svg>
