<svg width="226" height="38" viewBox="0 0 226 38" fill="none" xmlns="http://www.w3.org/2000/svg">
<g opacity="0.2">
<path d="M66.603 0.000467766C62.6052 -0.0351716 58.8295 1.97759 58.8295 1.97759C58.8295 1.97759 55.0256 4.27277 53.6361 7.71185C53.5643 8.04588 46.0284 22.6067 46.0284 22.6067C36.476 19.8548 31.8578 25.4308 32.0033 27.5829C34.3111 33.3506 45.5961 29.2476 46.7229 27.9123C47.3466 27.579 47.7485 27.9781 47.7485 27.9781C47.7485 27.9781 50.5122 29.8112 50.8245 29.9555C51.1366 30.0998 52.7102 29.8896 52.7102 29.8896C53.9339 29.797 56.1173 27.4079 56.3818 27.385C56.7899 27.3863 57.2821 30.0317 58.962 29.9884C60.9776 30.3765 63.1628 28.1101 63.1628 28.1101C63.4505 27.7046 63.5598 28.0111 63.5598 28.0111C63.5134 30.497 65.5399 30.0585 66.1397 29.9884C68.1312 29.181 73.009 24.3933 72.4578 25.8034C72.2661 26.1853 70.7708 28.9667 70.7708 28.9667C70.6033 29.7077 71.1347 29.6588 71.1347 29.6588L74.6408 29.6259C75.2403 29.2688 78.3079 22.6875 77.9487 23.5955C79.0543 21.6021 81.5542 20.8933 81.5542 20.8933C81.7943 20.822 81.6865 21.1567 81.6865 21.1567L77.5848 29.2634C77.5133 29.4779 77.9154 29.6918 77.9154 29.6918L81.4879 29.6259C81.968 29.5797 84.9611 23.4635 84.9611 23.4635C85.7758 21.9116 88.6661 21.025 88.6661 21.025C89.1935 20.9306 88.8314 21.4534 88.8314 21.4534L86.0198 27.3192C85.5925 29.9823 87.8386 30.1384 88.7983 30.0214C89.758 29.8808 91.3188 29.3423 94.3884 27.0554C95.0126 26.5796 95.1493 27.0584 95.1493 27.1545C95.1757 30.4294 98.7878 30.0543 98.7878 30.0543C99.8677 30.3202 104.251 30.2173 107.917 22.9363C106.577 27.8808 109.31 29.2272 109.406 29.3953C109.502 29.5625 110.971 30.0737 111.523 29.9555C117.114 30.4493 119.462 21.783 119.462 21.783C120.72 20.8426 121.039 20.5728 121.546 20.2999C122.794 20.4223 123.129 20.4575 123.729 20.5307C124.208 20.6996 123.774 21.1457 123.629 21.2885C117.922 25.7196 120.427 29.1365 120.619 29.0657C123.117 32.4431 128.302 26.5557 129.286 26.4623C130.537 31.4386 134.344 29.2722 134.512 29.2963C134.177 30.2755 133.2 32.697 132.362 34.2723C130.612 36.7302 127.864 33.9759 127.864 33.9759L127.169 33.9429C126.833 34.3721 127.037 34.8656 127.037 34.8656C127.757 36.0152 128.679 37.6059 131.535 37.9962C134.415 38.1238 136.067 34.9644 136.067 34.9644C136.067 34.9644 140.104 27.5441 140.367 26.66C141.59 25.5637 143.713 23.9809 145.296 22.8375C146.327 22.6253 142.714 28.4935 142.451 29.3292C142.379 29.8075 142.55 29.8238 142.55 29.8238C142.55 29.8238 145.297 29.9597 145.825 29.8896C146.353 29.8193 148.916 23.7518 149.827 22.6069C150.618 21.2941 153.168 20.0694 153.168 20.0694C153.72 19.9514 153.532 20.5966 153.532 20.5966L150.158 27.3853C149.344 30.2271 151.636 30.2418 152.044 30.2192C153.147 30.1499 157.27 27.7805 157.27 27.7805C157.845 27.3516 157.832 28.0442 157.832 28.0442C157.785 28.9527 158.77 30.4409 159.585 30.2519C162.513 30.5228 166.941 25.6778 167.061 26.1327C167.085 26.2286 165.407 29.5271 165.407 29.5271C165.479 29.7901 165.771 29.9226 165.771 29.9226C165.771 29.9226 168.606 29.9535 169.277 29.9555C169.949 29.9575 173.005 22.6819 173.677 22.2771C175.043 20.8706 176.539 20.7372 176.587 20.7613C177.091 20.7392 173.735 26.0794 173.544 27.1542C172.803 30.2364 175 30.186 175 30.186C176.752 30.4542 181.047 27.4185 181.119 27.6815C181.622 27.1813 181.682 27.7805 181.682 27.7805V28.0111C181.972 30.4984 183.435 30.219 183.435 30.219C185.115 30.654 191.671 25.1771 191.671 25.1771L190.679 24.0897L186.577 27.0554C186.241 27.2223 186.048 26.8578 186.048 26.8578L190.646 18.0261C190.861 17.8118 190.546 17.5648 190.546 17.5648H186.412C186.124 17.8745 185.949 18.092 185.949 18.092L182.211 25.342L178.109 27.3521C177.678 27.4701 177.779 27.0227 177.779 27.0227C177.779 27.0227 181.196 20.3417 181.483 19.4102C181.675 18.9805 181.582 18.2899 181.582 18.2899C180.453 15.6806 175.889 19.0584 175.265 19.0808C175.24 19.1047 175.827 17.8944 175.827 17.8944C175.995 17.536 175.662 17.5319 175.662 17.5319L171.825 17.4989C171.825 17.4989 171.836 17.2273 171.692 17.466C171.548 17.7046 169.079 22.3102 169.079 22.3102L162.893 26.9566C162.366 27.0513 162.497 26.6931 162.497 26.6931L167.028 17.9603L167.061 17.5977L162.695 17.4989L159.089 24.4191C158.898 24.6339 155.12 26.759 155.12 26.759C154.544 26.9252 154.525 26.4294 154.525 26.4294L157.866 19.9706C158.622 17.4507 155.859 16.7099 154.492 17.2022C153.567 17.5341 152.705 17.8285 152.705 17.8285C152.705 17.8285 152.432 17.8993 152.672 17.5648C153.079 16.9921 157.303 8.66723 157.303 8.66723C157.399 8.42808 157.171 8.27176 157.171 8.27176L153.334 8.23882C153.022 8.38089 152.97 8.60136 152.97 8.60136L147.512 18.9159L143.013 22.2773C142.725 22.4678 142.716 22.1453 142.716 22.1453L144.965 17.8944V17.4657L140.929 17.4328L140.268 17.96C139.811 17.0024 137.495 17.0137 137.423 17.0373C132.576 16.88 129.848 23.727 129.848 23.727C127.151 26.0563 125.905 26.7811 125.019 26.9234C124.282 26.9647 124.059 26.363 124.059 26.363C123.033 23.2287 129.484 20.2667 129.484 20.2667C129.7 20.1475 130.63 17.3672 130.51 17.3669C130.39 17.3667 122.577 17.3578 122.505 17.334C122.073 17.1656 119.986 19.1221 119.362 19.5749C117.535 14.2388 110.455 18.2746 109.472 20.6622C109.05 20.7743 108.861 20.6961 108.645 20.6952C108.716 18.8788 108.474 17.7462 107.322 17.1691C106.698 16.8328 104.147 17.1691 104.147 17.1691L108.48 8.56818C108.695 8.30568 108.281 8.04096 108.281 8.04096H104.378C104.21 8.13633 104.014 8.37032 104.014 8.37032C104.014 8.37032 96.6392 22.601 96.2077 23.3647C95.7764 24.1283 90.3859 26.9896 90.3859 26.9896C90.4333 26.4641 93.9053 20.4496 94.0247 19.2784C94.1661 16.2429 90.6837 17.2022 90.6837 17.2022C90.6837 17.2022 88.7117 18.5064 86.9129 19.4102C86.5263 16.0859 83.6049 17.2352 83.6049 17.2352L80.2972 19.3772L80.8925 17.8285L81.025 17.2352L77.0554 17.1364C76.6002 17.4699 75.7986 19.2784 75.7986 19.2784L74.5416 21.5852L68.8854 25.8363C68.3337 26.1453 68.6206 25.4079 68.6206 25.4079C68.6206 25.4079 72.4396 17.9458 72.5237 17.8941C72.8355 17.7037 72.5901 17.2354 72.5901 17.2354L68.7529 17.2022C68.7529 17.2022 68.103 18.3022 67.9592 18.4216C66.1335 15.858 60.109 16.8985 56.878 24.4852C56.465 24.9923 56.1455 25.3472 55.9187 25.4408C52.1304 29.8528 49.9645 25.4738 49.9645 25.4738L56.7457 12.5888C56.7457 12.5888 59.8309 5.71211 61.7735 3.75711C66.6903 0.448049 68.0914 3.55949 68.0914 3.55949C68.5163 4.54019 69.8118 8.08053 63.1297 9.78778C62.2532 9.87405 62.5342 10.2818 62.5342 10.2818C64.479 11.937 66.8675 11.7649 66.8675 11.7649C69.2194 12.2255 75.5926 8.73163 73.2846 3.13108C71.4835 0.786255 69.0016 0.0218514 66.603 0.000467766ZM167.524 8.73335C164.021 8.86681 163.816 13.5508 167.392 14.0387C170.871 14.1444 171.532 8.88819 167.524 8.7331V8.73335ZM191.373 8.73335C187.582 8.74662 187.865 14.0766 191.439 14.0387C195.015 13.7622 194.709 8.86189 191.373 8.7331V8.73335ZM66.206 18.718C67.3274 18.7436 67.1312 20.0822 66.9339 20.3329C67.054 20.7394 64.9821 24.2212 64.9821 24.2212C62.5847 27.2029 61.4427 26.6597 61.4427 26.6597C61.4427 26.6597 60.6211 26.5462 61.2443 24.9463C61.9154 23.8245 63.2186 20.9056 64.5851 19.2121C65.3048 18.8436 65.832 18.7094 66.206 18.718ZM103.816 19.0474C104.992 19.1944 104.411 20.2667 104.411 20.2667L101.169 26.6268C100.139 27.8914 99.1848 27.4507 99.1848 27.4507C98.6568 27.0662 99.5487 25.6053 99.5487 25.6053L102.592 19.6737C103.191 19.0535 103.816 19.0474 103.816 19.0474ZM137.555 19.0806C138.473 18.9183 138.846 19.6737 138.846 19.6737C138.846 19.6737 138.899 19.7951 138.779 20.4646C138.516 21.492 135.67 26.3962 135.67 26.3962C134.471 27.5883 133.421 27.3519 133.421 27.3519C132.821 27.1828 133.057 26.2974 133.057 26.2974C133.057 26.2974 135.361 21.5888 136.464 19.6078C136.896 19.2922 137.249 19.1344 137.555 19.0806ZM115.492 19.1135C115.999 19.0282 116.481 19.2364 116.385 20.2997C115.787 21.565 113.425 26.2134 112.945 26.8573C112.85 27.4074 110.437 28.3036 111.06 26.2974C111.06 26.2974 114.443 19.9932 114.467 19.7066C114.479 19.5631 114.985 19.1985 115.492 19.1135ZM39.3135 24.2876C41.2912 24.2404 43.0843 24.8804 43.0843 24.8804C43.0843 24.8804 42.6217 26.4166 38.2549 27.1213C36.1913 26.9967 35.1132 27.0058 35.1124 26.2647C36.1193 24.7721 37.7753 24.3242 39.3135 24.2876Z" fill="#F0EEFF"/>
</g>
</svg>
