<svg width="148" height="43" viewBox="0 0 148 43" fill="none" xmlns="http://www.w3.org/2000/svg">
<g clip-path="url(#clip0_312_1005)">
<path d="M65.5083 0.2159L33.6614 0.431799C33.6614 0.431799 31.9422 0.863598 30.4319 2.3749C28.9277 3.89219 24.8386 7.13668 27.6383 9.94337C30.4379 12.7561 40.2278 23.3471 40.2278 23.3471C40.2278 23.3471 43.9945 27.6711 40.3352 27.887C36.676 28.1029 5.04398 27.887 5.04398 27.887C5.04398 27.887 1.6235 27.965 0.847472 30.2619C-0.0598806 32.9487 -1.41494 33.7223 3.96948 33.7223C9.3539 33.7223 47.0031 33.5064 47.0031 33.5064C47.0031 33.5064 50.2325 33.7223 52.1666 31.9951C54.1007 30.2679 55.0737 29.0745 55.0737 29.0745C55.0737 29.0745 57.8734 26.5856 54.2141 22.9153L41.4097 8.54003C41.4097 8.54003 39.1533 6.92078 43.0215 5.18759H56.7929C56.7929 5.18759 59.9149 9.18773 63.1384 12.2163C66.3679 15.2449 76.9099 26.8075 76.9099 26.8075C76.9099 26.8075 79.6021 29.4043 80.7841 29.4043H85.7327C85.7327 29.4043 88.3951 26.9874 89.8994 25.4702C91.4037 23.9589 105.629 8.55202 105.629 8.55202C105.629 8.55202 108.315 5.61939 109.61 5.40349C110.9 5.18759 124.898 5.41548 124.898 5.41548C124.898 5.41548 127.59 5.63138 128.772 4.44393C129.865 3.32845 130.491 2.159 130.491 2.159C130.491 2.159 131.996 0.2159 128.342 0.2159C124.683 0.2159 108.333 0 108.333 0C108.333 0 106.399 0.431799 105.103 1.7272C103.814 3.02259 87.4579 19.2391 87.4579 19.2391C87.4579 19.2391 86.2222 20.6964 85.3089 19.347C84.3896 17.9976 68.6303 1.61925 68.6303 1.61925C68.6303 1.61925 67.7647 0.323849 65.5083 0.2159Z" fill="#F0EEFF"/>
<path d="M112.828 39.8575L147.821 2.86673L132.605 2.7168L103.39 32.0671C103.39 32.0671 97.4569 36.1932 93.6543 36.8049C90.0488 37.3807 76.7668 37.7225 76.7668 37.7225L74.3313 42.6162L97.7613 42.9221C97.7613 42.9161 108.417 43.222 112.828 39.8575Z" fill="#EA0200"/>
</g>
<defs>
<clipPath id="clip0_312_1005">
<rect width="148" height="43" fill="white"/>
</clipPath>
</defs>
</svg>
