<svg width="247" height="26" viewBox="0 0 247 26" fill="none" xmlns="http://www.w3.org/2000/svg">
<g opacity="0.2">
<path d="M204.125 0.339523C205.667 0.0658462 207.235 0.0267447 208.79 0.000680218C210.345 -0.012352 211.965 0.157072 213.352 0.925974C214.622 1.44726 215.321 3.01113 214.855 4.32739C214.246 6.34738 212.807 7.96338 211.343 9.40996C207.637 13.2545 203.036 16.0173 198.617 18.9365C199.356 17.8549 199.965 16.6689 200.418 15.4439C200.768 14.4795 201.105 13.476 201.144 12.4334C201.196 11.3648 200.976 10.218 200.289 9.37086C199.602 8.58893 198.617 8.11977 197.632 7.84609C196.207 7.44209 194.703 7.403 193.226 7.403C189.869 7.42906 186.539 7.97641 183.26 8.65409C182.107 8.86261 180.979 9.21448 179.8 9.26661C180.798 8.9408 181.679 8.35435 182.625 7.88519C187.044 5.63061 191.619 3.67578 196.349 2.1901C198.889 1.3821 201.494 0.795652 204.125 0.339523ZM50.8298 10.7653C50.9982 10.5829 51.2445 10.622 51.4648 10.6089C53.3568 10.622 55.2489 10.622 57.1409 10.6089C57.1798 13.3066 57.2316 16.0043 57.2705 18.7019C60.6788 16.0955 63.8668 13.2023 67.2621 10.5829C69.3356 10.6611 71.409 10.5829 73.4825 10.635C73.4696 15.7436 73.4696 20.8653 73.4825 25.9739C70.787 26 68.1044 25.9479 65.4219 26H65.37C65.3441 23.6021 65.3571 21.2041 65.3571 18.8192C62.5708 21.139 59.979 23.6672 57.2057 26H56.804C54.264 25.9479 51.7369 26.013 49.1969 25.9739C49.2358 23.576 49.184 21.165 49.2228 18.7671C46.4625 21.1259 43.8188 23.6281 41.0715 26H32C32.2592 25.7263 32.5572 25.5048 32.8683 25.2832C34.4234 24.1234 35.8619 22.8201 37.404 21.6342C41.8879 18.0112 46.3718 14.4013 50.8298 10.7653ZM97.8718 10.5959C100.541 10.622 103.224 10.6089 105.894 10.6089C105.932 14.5447 105.907 18.4804 105.907 22.4161H111.324C111.298 23.6021 111.285 24.775 111.324 25.9609C106.827 25.9609 102.33 25.987 97.8329 25.9479C97.8589 20.8392 97.82 15.7176 97.8718 10.5959ZM76.2428 15.7306C76.9556 14.3622 78.407 13.3327 79.9751 13.3457H96.0057C95.9798 14.5447 96.0057 15.7306 96.0057 16.9296C92.4808 16.9687 88.9429 16.9035 85.418 16.9556C84.5108 16.9947 83.7851 17.7636 83.5259 18.5977C83.176 19.7185 83.3704 21.0999 84.2776 21.9079C84.6016 22.1685 84.9903 22.377 85.418 22.377C88.9429 22.4683 92.4808 22.377 96.0186 22.4161C95.9927 23.589 95.9927 24.7619 96.0316 25.9348C90.6017 25.987 85.1588 25.9479 79.7289 25.9609C78.5366 25.9218 77.4351 25.2572 76.7223 24.3188C74.9858 21.8558 74.8821 18.4022 76.2428 15.7306ZM114.058 13.3327C119.332 13.3587 124.594 13.3327 129.868 13.3457C130.957 13.3457 132.045 13.7758 132.823 14.5577C134.119 15.8218 134.715 17.6724 134.728 19.4709C134.741 21.152 134.391 22.9114 133.328 24.2537C132.616 25.192 131.54 25.8306 130.374 26H115.25C114.123 25.8175 113.488 24.6837 113.28 23.6542C113.021 22.3901 113.125 21.0087 113.773 19.8618C114.136 19.2102 114.861 18.7932 115.6 18.7932C119.28 18.8192 122.961 18.7801 126.641 18.8192V16.9426C122.443 16.9687 118.244 16.9426 114.058 16.9556C114.019 15.7436 114.032 14.5316 114.058 13.3327ZM120.291 20.6047V22.4292C122.404 22.4292 124.529 22.4031 126.641 22.4552C126.654 21.8297 126.667 21.2172 126.667 20.5916C124.542 20.5786 122.417 20.5656 120.291 20.6047ZM136.607 15.3005C136.529 14.271 137.514 13.2414 138.551 13.3587C142.102 13.3066 145.653 13.3587 149.19 13.3457C149.164 14.5447 149.177 15.7306 149.177 16.9296C147.674 16.9426 146.158 16.9296 144.655 16.9426C144.668 19.953 144.655 22.9635 144.668 25.9609C141.985 25.9739 139.303 25.9609 136.607 25.9609V15.3005ZM152.612 14.0755C153.376 13.5281 154.335 13.3457 155.268 13.3457C160.063 13.3587 164.858 13.3587 169.653 13.3457C170.599 13.5672 171.221 14.5056 171.493 15.3918C171.843 16.6429 171.817 18.0503 171.221 19.2232C170.858 19.9661 170.133 20.6177 169.264 20.5786H158.197V22.4161C162.409 22.4422 166.621 22.4031 170.832 22.4292C170.819 23.6151 170.832 24.801 170.806 25.987H154.53C153.26 25.8436 152.08 25.1008 151.381 24.0321C150.214 22.2728 149.877 20.0182 150.292 17.9721C150.59 16.4604 151.329 14.9617 152.612 14.0755ZM158.197 16.9556C158.197 17.5551 158.21 18.1546 158.197 18.7541C160.296 18.8192 162.396 18.7541 164.495 18.7932C164.495 18.1807 164.495 17.5551 164.508 16.9426C162.396 16.9556 160.296 16.9296 158.197 16.9556Z" fill="#F0EEFF"/>
<path d="M173.528 13.3327C178.932 13.3457 184.336 13.3457 189.74 13.3327C190.556 13.2936 191.386 13.45 192.111 13.8149C193.226 14.3492 194.185 15.4439 194.237 16.7211C194.314 19.7967 194.224 22.8723 194.276 25.9609C191.865 25.9479 189.455 25.987 187.044 25.9479C187.07 23.8367 187.057 21.7124 187.057 19.6012C187.07 18.7932 186.578 18.0112 185.852 17.6594C184.556 17.0208 183.079 16.9817 181.666 16.9035C181.666 19.9139 181.627 22.9114 181.679 25.9218C181.187 25.9348 180.681 25.9348 180.189 25.987H175.562C174.889 25.9348 174.202 25.9609 173.515 25.9479C173.541 21.7515 173.528 17.5421 173.528 13.3327Z" fill="#F0EEFF"/>
</g>
</svg>
