<svg width="354" height="52" viewBox="0 0 354 52" fill="none" xmlns="http://www.w3.org/2000/svg">
<g opacity="0.2">
<path d="M242.745 16V35.9156H247.122V28.4473H273.681V35.9156H278.1V16H273.723V24.1013H247.164V16H242.745ZM78.9724 16C76.5312 16 74.553 17.9831 74.5109 20.4304V31.5696C74.5109 34.0169 76.5312 35.9578 78.9724 35.9578H106.878C109.319 35.9578 111.255 33.9747 111.255 31.5696V20.4304C111.255 18.0675 109.361 16.0844 106.962 16.0422L78.9724 16ZM116.559 16V35.9156H120.894V30.6414H145.264C147.663 30.6414 149.642 32.6667 149.642 35.0717V35.8734H154.061V35.8312C154.061 32.962 152.419 30.346 149.81 29.0802C152.167 28.9958 154.019 27.0549 154.019 24.692V20.3882C154.019 17.9409 152.041 16 149.599 16H116.559ZM32 16.0422V35.9578H36.3774V30.6835H64.9985C67.4398 30.6835 69.418 28.7004 69.418 26.2954V20.4304C69.418 17.9831 67.3977 16.0422 64.9985 16.0422H32.0842H32ZM206.168 16.0422C203.727 16.0422 201.707 18.0253 201.707 20.4304V31.5696C201.707 33.9747 203.643 36 206.042 36H237.736V31.6118H206.673C206.379 31.6118 206.126 31.4009 206.126 31.0633V21.0211C206.126 20.6413 206.463 20.4304 206.842 20.4304H237.736V16L206.168 16.0422ZM283.235 16.0422V35.9578H322V32.2447H287.655V27.8987H322V24.1435H287.655V19.7975H322V16.0422H283.235ZM163.405 16.0422C161.006 16.1266 159.07 18.0675 159.07 20.5148V23.4684C159.07 25.9156 161.09 27.8987 163.531 27.8987H191.395C191.774 27.8987 192.11 28.1941 192.152 28.5738V31.6118C192.152 31.9916 191.816 32.2447 191.395 32.2447H159.701V36H192.152C194.552 36 196.53 33.9747 196.53 31.5696V28.5738C196.53 26.1688 194.509 24.1435 192.11 24.1435H164.205C163.826 24.1856 163.489 23.8903 163.489 23.5105V20.4726C163.489 20.0928 163.826 19.7975 164.205 19.7975H195.814V16.0844L163.405 16.0422ZM120.936 20.3882H148.884C149.305 20.4304 149.642 20.7679 149.642 21.1477V25.5359C149.642 25.9156 149.347 26.2532 148.968 26.2954H120.936V20.3882ZM36.3774 20.3882L64.283 20.4304C64.6618 20.4304 65.0406 20.8101 65.0406 21.1899V25.5359C65.0406 25.9156 64.746 26.2532 64.3672 26.2954H36.4615V20.3882H36.3774ZM79.688 20.4304H106.205C106.583 20.4304 106.962 20.7679 106.962 21.1899V30.8523C106.962 31.2743 106.668 31.5696 106.247 31.6118H79.5196C79.225 31.6118 78.9724 31.3587 78.9724 31.0633V21.0211C79.0145 20.6413 79.3512 20.3882 79.688 20.4304Z" fill="#F0EEFF"/>
</g>
</svg>
