<svg width="48" height="49" viewBox="0 0 48 49" fill="none" xmlns="http://www.w3.org/2000/svg">
<path d="M34.2219 23.1022C32.8151 24.9816 30.9478 26.4065 28.7849 27.3359C28.649 27.3938 28.5488 27.5521 28.3873 27.4738L24.1074 18.5637L23.9426 18.5245L17.8855 31.1867L17.9042 31.2888L19.8785 31.9936C26.1412 33.5598 32.8253 31.3739 36.8045 26.306C37.1596 25.8532 37.5045 25.1927 37.8477 24.7977C38.0788 24.5322 38.3064 24.6973 38.5919 24.6956C41.3443 24.6717 44.3534 24.4947 47.0888 24.6479C47.1755 24.653 47.257 24.653 47.3386 24.6871C47.3964 24.7296 47.3624 24.8862 47.3437 24.9492C47.201 25.4361 46.8306 26.1954 46.6063 26.6788C41.3681 38.0523 28.2803 43.7518 16.3326 39.8857C12.8325 38.7537 9.60769 36.8419 6.93168 34.3241C6.84503 34.079 7.00304 33.9956 7.0693 33.8372C8.30792 30.8871 9.92372 27.8875 11.3152 24.9833C15.2061 16.8715 19.0935 8.73766 22.9708 0.613997C23.3577 -0.198446 24.5072 -0.205513 24.9121 0.598124C25.7347 2.23091 26.603 3.98098 27.3186 5.46913C29.8944 10.8299 32.4668 16.1855 35.068 21.5377C35.1088 21.6398 35.0918 21.7267 35.0544 21.8254C34.961 22.0688 34.4054 22.8536 34.2219 23.0988V23.1022Z" fill="white"/>
<path d="M0.0658009 48.6529L0.00633394 48.5831C-0.00895755 48.532 0.00633394 48.486 0.0216254 48.4384C0.115073 48.1354 0.473574 47.5821 0.628188 47.2569C2.19642 43.9493 3.93115 40.6143 5.41612 37.2862C5.4569 37.1926 5.44161 36.9458 5.58943 36.9475L6.94357 38.0829C8.5101 39.2797 10.1973 40.2977 11.9677 41.1999C12.1325 41.2834 12.7934 41.5268 12.8274 41.6613L9.45648 48.6529H0.0658009Z" fill="white"/>
<path d="M38.5494 48.6529L35.1768 41.6596L35.2855 41.5506C37.8749 40.3777 40.2739 38.8098 42.4164 36.9458C42.5643 36.9458 42.549 37.1909 42.5897 37.2845C43.1283 38.5289 43.8301 39.7938 44.4213 41.0246C45.5172 43.3024 46.5706 45.5784 47.6665 47.8596C47.7345 48.0026 48.0318 48.4707 47.9978 48.5831L47.9384 48.6529H38.5494Z" fill="white"/>
</svg>
