<svg width="58" height="59" viewBox="0 0 58 59" fill="none" xmlns="http://www.w3.org/2000/svg">
<path d="M39.2219 28.1022C37.8151 29.9816 35.9478 31.4065 33.7849 32.3359C33.649 32.3938 33.5488 32.5521 33.3873 32.4738L29.1074 23.5637L28.9426 23.5245L22.8855 36.1867L22.9042 36.2888L24.8785 36.9936C31.1412 38.5598 37.8253 36.3739 41.8045 31.306C42.1596 30.8532 42.5045 30.1927 42.8477 29.7977C43.0788 29.5322 43.3064 29.6973 43.5919 29.6956C46.3443 29.6717 49.3534 29.4947 52.0888 29.6479C52.1755 29.653 52.257 29.653 52.3386 29.6871C52.3964 29.7296 52.3624 29.8862 52.3437 29.9492C52.201 30.4361 51.8306 31.1954 51.6063 31.6788C46.3681 43.0523 33.2803 48.7518 21.3326 44.8857C17.8325 43.7537 14.6077 41.8419 11.9317 39.3241C11.845 39.079 12.003 38.9956 12.0693 38.8372C13.3079 35.8871 14.9237 32.8875 16.3152 29.9833C20.2061 21.8715 24.0935 13.7377 27.9708 5.614C28.3577 4.80155 29.5072 4.79449 29.9121 5.59812C30.7347 7.23091 31.603 8.98098 32.3186 10.4691C34.8944 15.8299 37.4668 21.1855 40.068 26.5377C40.1088 26.6398 40.0918 26.7267 40.0544 26.8254C39.961 27.0688 39.4054 27.8536 39.2219 28.0988V28.1022Z" fill="black"/>
<path d="M5.0658 53.6529L5.00633 53.5831C4.99104 53.532 5.00633 53.486 5.02163 53.4384C5.11507 53.1354 5.47357 52.5821 5.62819 52.2569C7.19642 48.9493 8.93115 45.6143 10.4161 42.2862C10.4569 42.1926 10.4416 41.9458 10.5894 41.9475L11.9436 43.0829C13.5101 44.2797 15.1973 45.2977 16.9677 46.1999C17.1325 46.2834 17.7934 46.5268 17.8274 46.6613L14.4565 53.6529H5.0658Z" fill="black"/>
<path d="M43.5494 53.6529L40.1768 46.6596L40.2855 46.5506C42.8749 45.3777 45.2739 43.8098 47.4164 41.9458C47.5643 41.9458 47.549 42.1909 47.5897 42.2845C48.1283 43.5289 48.8301 44.7938 49.4213 46.0246C50.5172 48.3024 51.5706 50.5784 52.6665 52.8596C52.7345 53.0026 53.0318 53.4707 52.9978 53.5831L52.9384 53.6529H43.5494Z" fill="black"/>
</svg>
