<svg width="104" height="106" viewBox="0 0 104 106" fill="none" xmlns="http://www.w3.org/2000/svg">
<path d="M74.1466 50.3322C71.0985 54.4269 67.0528 57.5313 62.3666 59.5564C62.0721 59.6825 61.8549 60.0275 61.5052 59.8568L52.2321 40.4441L51.875 40.3588L38.7514 67.9461L38.7919 68.1686L43.0695 69.7041C56.6386 73.1164 71.1206 68.3541 79.7421 57.3125C80.5114 56.3259 81.2587 54.8868 82.0023 54.0264C82.503 53.4478 82.9963 53.8075 83.6147 53.8038C89.5783 53.7519 96.0978 53.3661 102.025 53.7C102.212 53.7111 102.389 53.7111 102.566 53.7853C102.691 53.878 102.617 54.2192 102.577 54.3565C102.268 55.4172 101.465 57.0714 100.979 58.1248C89.6299 82.9043 61.2732 95.3219 35.3867 86.8988C27.8034 84.4324 20.8164 80.2672 15.0184 74.7817C14.8307 74.2476 15.173 74.0658 15.3166 73.7209C18.0002 67.2933 21.5011 60.7581 24.516 54.4306C32.9461 36.7574 41.3688 19.036 49.7694 1.33687C50.6071 -0.432088 53.0989 -0.447471 53.9755 1.30234C55.7578 4.85971 57.6392 8.67259 59.1897 11.9148C64.7704 23.5943 70.3438 35.2627 75.9798 46.9237C76.0682 47.1462 76.0314 47.3354 75.9504 47.5505C75.7479 48.0809 74.5441 49.7907 74.1466 50.3248V50.3322Z" fill="#F0EEFF"/>
<path d="M0.142567 106L0.0137234 105.848C-0.0194078 105.737 0.0137234 105.637 0.0468546 105.533C0.249323 104.872 1.02607 103.667 1.36106 102.959C4.75885 95.7522 8.5174 88.4863 11.7348 81.2353C11.8232 81.0313 11.79 80.4935 12.1103 80.4972L15.0442 82.9711C18.4384 85.5785 22.0938 87.7964 25.9297 89.7622C26.2868 89.9439 27.7188 90.4743 27.7924 90.7673L20.4888 106H0.142567Z" fill="#F0EEFF"/>
<path d="M83.5228 106L76.2155 90.7636L76.4511 90.5262C82.0613 87.9708 87.2592 84.5548 91.9013 80.4935C92.2215 80.4935 92.1884 81.0276 92.2768 81.2316C93.4437 83.9428 94.9641 86.6986 96.2451 89.3802C98.6195 94.3427 100.902 99.3016 103.276 104.272C103.424 104.583 104.068 105.603 103.994 105.848L103.865 106H83.5228Z" fill="#F0EEFF"/>
</svg>
