<svg width="284" height="30" viewBox="0 0 284 30" fill="none" xmlns="http://www.w3.org/2000/svg">
<path d="M40.3292 13.4836L45.4794 23.6313H53.5954L47.0144 11.1297L58.0537 0.00481405H50.4447L40.822 9.62773L41.9591 0H34.7717L32 23.6313H39.1258L40.3292 13.4836ZM64.7958 10.1476C64.8432 9.49294 65.1275 7.54814 67.5675 7.54814H70.1496C70.1496 7.54814 69.9127 9.87323 69.7706 10.8119L68.9699 17.3829C68.842 18.336 68.5767 20.1701 66.094 20.1701H63.4739L64.7958 10.1476ZM60.7781 23.6264H70.4623C73.8499 23.6264 75.5319 22.293 75.9109 19.294L77.1665 8.88158C77.3418 7.39409 77.1523 6.3543 76.579 5.69962C75.9631 4.99198 74.826 4.57317 73.0113 4.57317H63.2844C60.8586 4.57317 58.2243 4.99198 57.7505 8.95379L56.495 19.3662C56.3055 20.8585 56.495 21.9079 57.0872 22.5915C57.7363 23.3424 58.8734 23.6313 60.7781 23.6313M88.1395 10.1476C88.329 8.56868 89.4187 7.54814 90.9111 7.54814H93.5407L92.9579 12.4775L87.8315 12.5257L88.1395 10.1476ZM84.0791 23.6264H93.9339C97.2884 23.6264 98.8803 22.346 99.2878 19.3325L99.4204 18.2734H92.2709C91.8398 19.9005 90.3615 20.1701 89.5229 20.1701H86.955L87.4572 15.7702H99.7142L100.548 8.83825C100.719 7.40372 100.515 6.38318 99.9321 5.71887C99.2783 4.96791 98.0986 4.57317 96.2271 4.57317H86.846C83.1126 4.57317 81.5111 5.86329 81.1368 8.95379L79.8387 19.371C79.6634 20.8296 79.8623 21.8694 80.4546 22.5481C81.1037 23.2991 82.2218 23.6313 84.0791 23.6313M192.662 10.1476C192.852 8.56868 193.942 7.54814 195.429 7.54814H198.064L197.481 12.4775L192.354 12.5257L192.662 10.1476ZM188.597 23.6264H198.452C201.816 23.6264 203.403 22.346 203.811 19.3325L203.943 18.2734H196.794C196.363 19.9005 194.88 20.1701 194.046 20.1701H191.473L191.98 15.7702H204.237L205.066 8.83825C205.237 7.40372 205.038 6.38318 204.455 5.71887C203.801 4.96791 202.622 4.57317 200.745 4.57317H191.364C187.636 4.57317 186.034 5.86329 185.66 8.95379L184.362 19.371C184.182 20.8296 184.385 21.8694 184.978 22.5481C185.627 23.2991 186.745 23.6313 188.597 23.6313M111.441 11.0767C111.441 11.0767 113.061 9.71919 114.141 8.9249C115.217 8.13543 116.918 7.90436 116.918 7.90436C116.918 7.90436 116.605 10.3257 116.548 10.889L115.027 23.6313H122.196L123.934 8.88158C124.119 7.38928 123.925 6.33023 123.333 5.65147C122.721 4.94384 121.651 4.57317 119.955 4.57317H118.31C116.098 4.57317 114.515 5.69962 114.515 5.69962L111.824 7.86585L112.218 4.57317H105.049L102.751 23.6313H109.915L111.441 11.0767ZM126.09 23.6313H133.254L135.495 4.57317H128.36L126.09 23.6313ZM150.865 10.6916L150.083 17.0796C150.083 17.0796 148.671 20.1701 145.44 20.1701H144.644L145.871 10.1476C146.022 8.80456 146.814 7.55295 148.652 7.55295C149.41 7.54332 151.192 7.55295 151.192 7.55295L150.865 10.6916ZM143.943 4.57317C140.778 4.57317 139.214 5.91142 138.882 8.90565L137.627 19.1495C137.452 20.6033 137.651 21.6431 138.243 22.3171C138.859 23.0247 139.944 23.6313 141.559 23.6313H144.246C147.918 23.6313 149.718 20.1653 149.718 20.1653L148.913 26.4714H136.831L136.48 30H150.381C153.035 30 155.797 29.5138 156.218 25.8841L158.73 4.57317H143.943ZM220.877 10.6916L220.095 17.0796C220.095 17.0796 218.683 20.1701 215.452 20.1701H214.656L215.883 10.1476C216.035 8.80456 216.826 7.55295 218.669 7.55295C219.427 7.54332 221.208 7.55295 221.208 7.55295L220.877 10.6916ZM213.955 4.57317C210.79 4.57317 209.226 5.91142 208.899 8.90565L207.639 19.1495C207.464 20.6033 207.667 21.6431 208.255 22.3171C208.871 23.0247 209.956 23.6313 211.571 23.6313H214.258C217.934 23.6313 219.73 20.1653 219.73 20.1653L218.925 26.4714H206.843L206.492 30H220.393C223.047 30 225.809 29.5138 226.231 25.8841L228.742 4.57317H213.955ZM244.135 10.6916L243.353 17.0796C243.353 17.0796 241.941 20.1701 238.71 20.1701H237.914L239.141 10.1476C239.293 8.80456 240.089 7.55295 241.927 7.55295C242.685 7.54332 244.467 7.55295 244.467 7.55295L244.135 10.6916ZM237.218 4.57317C234.043 4.57317 232.485 5.91142 232.158 8.90565L230.897 19.1495C230.722 20.6033 230.926 21.6431 231.513 22.3171C232.129 23.0247 233.214 23.6313 234.83 23.6313H237.516C241.193 23.6313 242.989 20.1653 242.989 20.1653L242.183 26.4714H230.106L229.751 30H243.652C246.305 30 249.067 29.5138 249.489 25.8841L252 4.57317H237.218ZM165.467 23.6313H175.023C178.453 23.6313 180.211 22.1534 180.557 19.1592L180.856 16.6126C181.031 15.2599 180.856 14.2827 180.306 13.628C179.406 12.5497 177.596 12.3957 175.995 12.3427H168.973L169.205 10.1958C169.451 8.24134 170.863 7.54814 172.105 7.54814H174.502L174.284 10.1476H181.486L181.68 8.7853C181.846 7.3267 181.633 6.28209 181.017 5.59852C180.387 4.88607 179.302 4.5491 177.71 4.57317H167.367C164.24 4.57317 162.681 5.91142 162.311 8.91527L161.966 11.5099C161.776 13.1226 161.975 14.2442 162.572 14.9422C163.472 15.982 165.254 16.0061 166.983 16.0302H173.777L173.635 17.1229C173.583 17.8546 173.18 20.1701 170.48 20.1701H168.054L168.272 18.2782H160.985L160.885 19.2747C160.696 20.7478 160.885 21.7875 161.473 22.4663C162.33 23.4628 163.984 23.6313 165.467 23.6313Z" fill="#F0EEFF"/>
</svg>
