<svg width="210" height="34" viewBox="0 0 210 34" fill="none" xmlns="http://www.w3.org/2000/svg">
<path d="M82.0602 25.932L81.239 27.2301H83.0437L82.2191 25.932H82.0569H82.0602ZM83.6622 28.2572L83.2905 27.6517H80.9923L80.6137 28.2572H79.9243L81.7561 25.4101H82.5469L84.372 28.2572H83.6622Z" fill="#F0EEFF"/>
<path d="M91.1043 28.284C90.4385 28.284 90.256 28.1803 90.256 27.4877V25.4101H90.8745V27.5814C90.8745 27.7587 90.9354 27.7855 91.1415 27.7855H93.2065C93.4194 27.7855 93.4803 27.7587 93.4803 27.5814V25.4101H94.092V27.4877C94.092 28.1736 93.9061 28.284 93.2336 28.284H91.101H91.1043Z" fill="#F0EEFF"/>
<path d="M101.636 28.2572V25.8752H99.9389V25.4101H103.934V25.8752H102.254V28.2572H101.636Z" fill="#F0EEFF"/>
<path d="M113.184 26.0592C113.184 25.8818 113.123 25.8484 112.917 25.8484H110.639C110.433 25.8484 110.375 25.8818 110.375 26.0592V27.5814C110.375 27.7587 110.436 27.7855 110.639 27.7855H112.917C113.123 27.7855 113.184 27.7587 113.184 27.5814V26.0592ZM110.649 28.284C110.01 28.284 109.757 28.1602 109.757 27.4944V26.1729C109.757 25.5138 110.007 25.3833 110.649 25.3833H112.907C113.546 25.3833 113.799 25.5138 113.799 26.1729V27.4944C113.799 28.1602 113.559 28.284 112.907 28.284H110.649Z" fill="#F0EEFF"/>
<path d="M123.908 28.2572V26.6212C123.908 26.4038 123.915 26.193 123.918 26.0692H123.901L122.367 28.0431H122.215L120.673 26.0692H120.657C120.667 26.203 120.673 26.4038 120.673 26.6112V28.2572H120.062V25.4101H120.798L122.292 27.364H122.302L123.796 25.4101H124.52V28.2572H123.908Z" fill="#F0EEFF"/>
<path d="M134.209 26.0592C134.209 25.8818 134.148 25.8484 133.942 25.8484H131.664C131.458 25.8484 131.401 25.8818 131.401 26.0592V27.5814C131.401 27.7587 131.461 27.7855 131.664 27.7855H133.942C134.148 27.7855 134.209 27.7587 134.209 27.5814V26.0592ZM131.674 28.284C131.036 28.284 130.782 28.1602 130.782 27.4944V26.1729C130.782 25.5138 131.032 25.3833 131.674 25.3833H133.932C134.571 25.3833 134.824 25.5138 134.824 26.1729V27.4944C134.824 28.1602 134.584 28.284 133.932 28.284H131.674Z" fill="#F0EEFF"/>
<path d="M144.129 27.2134C144.129 27.0294 144.064 26.9959 143.855 26.9959H141.685V27.7755H143.855C144.061 27.7755 144.129 27.742 144.129 27.5547V27.2134ZM144.129 26.0893C144.129 25.8986 144.068 25.8685 143.855 25.8685H141.685V26.5878H143.875C144.054 26.5878 144.125 26.551 144.125 26.3703V26.0893H144.129ZM144.73 27.5982C144.73 28.1234 144.44 28.2572 143.878 28.2572H141.087V25.4101H143.865C144.504 25.4101 144.707 25.5506 144.707 26.0759V26.3201C144.707 26.5309 144.652 26.7216 144.389 26.7751V26.7852C144.625 26.8353 144.734 26.9959 144.734 27.2602V27.5948L144.73 27.5982Z" fill="#F0EEFF"/>
<path d="M151.06 28.2572H151.679V25.4101H151.06V28.2572Z" fill="#F0EEFF"/>
<path d="M158.134 28.2572V25.4101H158.753V27.7587H161.578V28.2572H158.134Z" fill="#F0EEFF"/>
<path d="M167.607 28.2572H168.226V25.4101H167.607V28.2572Z" fill="#F0EEFF"/>
<path d="M166.519 10.3381C164.346 10.3381 162.528 10.5723 161.264 11.4656C160.071 12.3087 159.412 13.5131 159.412 14.8513C159.412 17.471 161.987 19.3646 165.15 19.3646H167.428C167.52 19.3646 167.607 19.3378 167.682 19.2876L168.415 18.8025C168.439 18.7891 168.446 18.7624 168.439 18.7356C168.432 18.7088 168.408 18.6921 168.381 18.6921C165.458 18.6553 163.082 17.3271 163.082 15.1524C163.082 12.9778 165.188 11.4823 168.449 11.4823H176.662C176.783 11.4823 176.898 11.4354 176.983 11.3485L178 10.3414H166.516L166.519 10.3381Z" fill="#F0EEFF"/>
<path d="M141.036 10.4686L136.156 15.2996H138.133C138.255 15.2996 138.37 15.2528 138.454 15.1658L142.026 11.6295C142.151 11.5057 142.354 11.5057 142.479 11.6295L150.155 19.2274C150.239 19.311 150.357 19.3612 150.476 19.3612H154.616L145.633 10.4686C145.548 10.3849 145.43 10.3381 145.311 10.3381H141.361C141.239 10.3381 141.124 10.3849 141.04 10.4686" fill="#F0EEFF"/>
<path d="M124.922 10.4284L118.112 15.5071C117.997 15.5907 117.841 15.5907 117.726 15.5071L110.906 10.4284C110.828 10.3682 110.73 10.3381 110.632 10.3381H105.695L116.456 18.3542C116.57 18.4378 116.726 18.4378 116.841 18.3542L124.983 12.2819C125.074 12.215 125.202 12.2785 125.202 12.3889V19.3646H128.876V10.3381H125.195C125.097 10.3381 124.999 10.3715 124.922 10.4284Z" fill="#F0EEFF"/>
<path d="M95.6872 19.3612H99.361V10.3347H95.6872V19.3612Z" fill="#F0EEFF"/>
<path d="M77.9742 14.6104C77.8119 14.6104 77.7308 14.8045 77.8457 14.9182L82.2022 19.2307C82.2867 19.3144 82.405 19.3646 82.5233 19.3646H86.6634L83.1519 15.8885C83.0708 15.8082 83.1215 15.671 83.233 15.6576L84.7167 15.5405C87.2582 15.2695 88.4445 14.2491 88.4445 12.8205C88.4445 11.1176 86.8256 10.3381 83.5676 10.3381H68.0615L69.2072 11.3485C69.2917 11.4321 69.4066 11.4789 69.5283 11.4789H81.5296C83.9664 11.4789 84.7708 12.0477 84.7708 13.0447C84.7708 13.9748 83.6284 14.5134 81.2086 14.5536C78.2243 14.6038 77.9742 14.6104 77.9742 14.6104Z" fill="#F0EEFF"/>
<path d="M53.451 20.3984L47.1952 14.2056C47.1073 14.1186 47.1614 13.9681 47.283 13.9547L48.4997 13.8242C51.0818 13.5499 52.5621 12.2719 52.5621 10.6593C52.5621 8.80244 50.5749 7.75526 47.2425 7.75526H35.1398C35.0181 6.72481 34.9302 5.7044 34.8795 4.70405C34.8626 4.37618 35.0857 4.08511 35.4068 4.01151C38.8879 3.21525 42.4568 2.79705 45.8636 2.79705H46.0495C49.4562 2.79705 53.0252 3.21191 56.5063 4.01151C56.8307 4.08511 57.0504 4.37618 57.0335 4.70405C56.7766 9.80948 55.6106 15.4335 53.4476 20.3984M51.5415 24.1488C50.0814 26.6045 48.3274 28.7758 46.2522 30.4687C46.0832 30.6059 45.8399 30.6059 45.6709 30.4687C39.993 25.8317 36.6809 17.6449 35.4203 9.76598L33.9738 8.99983H44.6773C48.1178 8.99983 48.5606 10.1106 48.5606 10.9068C48.5606 11.7031 48.1178 12.8138 44.6773 12.8138H41.5511C41.4328 12.8138 41.3517 12.9109 41.3517 13.0112C41.3517 13.0581 41.3686 13.1083 41.4091 13.1484L53.0218 24.644L51.5381 24.1488H51.5415ZM59.4128 1.86027C55.1578 0.67927 50.5343 -0.00992874 45.9582 0.000108129C41.3888 -0.00992874 36.762 0.67927 32.5036 1.86027C32.2062 1.94057 32 2.21156 32 2.51602C31.9932 13.7841 36.2686 27.7286 45.5763 33.8846C45.8095 34.0385 46.1103 34.0385 46.3435 33.8846C55.6478 27.732 59.9265 13.7874 59.9198 2.51602C59.9198 2.20822 59.7136 1.94057 59.4162 1.85693" fill="#F0EEFF"/>
</svg>
