<svg width="354" height="20" viewBox="0 0 354 20" fill="none" xmlns="http://www.w3.org/2000/svg">
<path d="M242.745 0V19.9156H247.122V12.4473H273.681V19.9156H278.1V0H273.723V8.10127H247.164V0H242.745ZM78.9724 0C76.5312 0 74.553 1.98312 74.5109 4.43038V15.5696C74.5109 18.0169 76.5312 19.9578 78.9724 19.9578H106.878C109.319 19.9578 111.255 17.9747 111.255 15.5696V4.43038C111.255 2.06751 109.361 0.0843908 106.962 0.0421967L78.9724 0ZM116.559 0V19.9156H120.894V14.6414H145.264C147.663 14.6414 149.642 16.6667 149.642 19.0717V19.8734H154.061V19.8312C154.061 16.962 152.419 14.346 149.81 13.0802C152.167 12.9958 154.019 11.0549 154.019 8.69199V4.38818C154.019 1.94093 152.041 0 149.599 0H116.559ZM32 0.0421967V19.9578H36.3774V14.6835H64.9985C67.4398 14.6835 69.418 12.7004 69.418 10.2954V4.43038C69.418 1.98312 67.3977 0.0421967 64.9985 0.0421967H32.0842H32ZM206.168 0.0421967C203.727 0.0421967 201.707 2.02532 201.707 4.43038V15.5696C201.707 17.9747 203.643 20 206.042 20H237.736V15.6118H206.673C206.379 15.6118 206.126 15.4009 206.126 15.0633V5.0211C206.126 4.64135 206.463 4.43038 206.842 4.43038H237.736V0L206.168 0.0421967ZM283.235 0.0421967V19.9578H322V16.2447H287.655V11.8987H322V8.14346H287.655V3.79747H322V0.0421967H283.235ZM163.405 0.0421967C161.006 0.126585 159.07 2.06752 159.07 4.51477V7.46836C159.07 9.91562 161.09 11.8987 163.531 11.8987H191.395C191.774 11.8987 192.11 12.1941 192.152 12.5738V15.6118C192.152 15.9916 191.816 16.2447 191.395 16.2447H159.701V20H192.152C194.552 20 196.53 17.9747 196.53 15.5696V12.5738C196.53 10.1688 194.509 8.14346 192.11 8.14346H164.205C163.826 8.18565 163.489 7.89029 163.489 7.51054V4.47258C163.489 4.09283 163.826 3.79747 164.205 3.79747H195.814V0.0843933L163.405 0.0421967ZM120.936 4.38818H148.884C149.305 4.43038 149.642 4.76794 149.642 5.14769V9.53587C149.642 9.91562 149.347 10.2532 148.968 10.2954H120.936V4.38818ZM36.3774 4.38818L64.283 4.43038C64.6618 4.43038 65.0406 4.81012 65.0406 5.18987V9.53587C65.0406 9.91562 64.746 10.2532 64.3672 10.2954H36.4615V4.38818H36.3774ZM79.688 4.43038H106.205C106.583 4.43038 106.962 4.76793 106.962 5.18987V14.8523C106.962 15.2743 106.668 15.5696 106.247 15.6118H79.5196C79.225 15.6118 78.9724 15.3587 78.9724 15.0633V5.0211C79.0145 4.64135 79.3512 4.38819 79.688 4.43038Z" fill="#F0EEFF"/>
</svg>
