<svg width="48" height="46" viewBox="0 0 48 46" fill="none" xmlns="http://www.w3.org/2000/svg">
<path fill-rule="evenodd" clip-rule="evenodd" d="M6.10526 8.22222C6.10526 5.89035 7.99038 4 10.3158 4L27.1579 4C29.4834 4 31.3684 5.89035 31.3684 8.22222V23H33.4737C35.7992 23 37.6842 24.8903 37.6842 27.2222V32.5C37.6842 33.0829 38.1556 33.5556 38.7368 33.5556C39.3181 33.5556 39.7895 33.0829 39.7895 32.5V19.6522L37.1579 17.0133L37.0676 17.1039C36.2455 17.9283 34.9124 17.9283 34.0903 17.1039C33.2682 16.2794 33.2682 14.9428 34.0903 14.1183L34.1806 14.0278L34.0903 13.9372C33.2682 13.1128 33.2682 11.7761 34.0903 10.9517C34.9124 10.1272 36.2455 10.1272 37.0676 10.9517L42.7667 16.6667C43.5564 17.4585 44 18.5324 44 19.6522V32.5C44 35.4148 41.6436 37.7778 38.7368 37.7778C35.8301 37.7778 33.4737 35.4148 33.4737 32.5V27.2222H31.3684L31.3684 37.7778C32.5312 37.7778 33.4737 38.7229 33.4737 39.8889C33.4737 41.0549 32.5312 42 31.3684 42H6.10526C4.94257 42 4 41.0549 4 39.8889C4 38.7229 4.94257 37.7778 6.10526 37.7778L6.10526 8.22222ZM20.6199 15.4997C21.1398 14.4568 20.7183 13.1887 19.6783 12.6673C18.6384 12.1459 17.3738 12.5686 16.8538 13.6114L12.6585 22.0253C11.9517 23.4429 12.9797 25.1111 14.5604 25.1111H19.541L16.8538 30.5004C16.3339 31.5432 16.7554 32.8112 17.7953 33.3326C18.8353 33.8541 20.0999 33.4314 20.6199 32.3885L24.8152 23.9747C25.5221 22.5569 24.4939 20.8889 22.9133 20.8889H17.9327L20.6199 15.4997Z" fill="#F0EEFF"/>
</svg>
