<svg width="48" height="48" viewBox="0 0 48 48" fill="none" xmlns="http://www.w3.org/2000/svg">
<path fill-rule="evenodd" clip-rule="evenodd" d="M24 4C35.0456 4 44 12.9543 44 24C44 35.0456 35.0456 44 24 44C12.9543 44 4 35.0456 4 24C4 12.9543 12.9543 4 24 4ZM8.41084 27.6184C9.82308 33.7272 14.7337 38.497 20.9188 39.7036C20.5318 34.4538 18.8052 31.3054 16.6256 29.5618C14.5383 27.8918 11.7057 27.2456 8.41084 27.6184ZM31.3744 29.5618C29.1948 31.3054 27.4682 34.4538 27.0814 39.7036C33.2664 38.497 38.177 33.7272 39.5892 27.6184C36.2944 27.2456 33.4616 27.892 31.3744 29.5618ZM24 8C16.1799 8 9.67021 13.6102 8.27603 21.0252L8.1907 21.5222L12.6106 20.6382C13.7738 20.4056 14.8809 19.7912 16.1168 18.958L17.0708 18.2947C18.6649 17.1618 21.0252 16 24 16C26.7765 16 29.0177 17.012 30.6002 18.0681L31.8832 18.958C32.9646 19.687 33.9474 20.2485 34.9555 20.5334L35.3894 20.6382L39.8094 21.5222C38.6184 13.8623 31.9938 8 24 8Z" fill="#F0EEFF"/>
</svg>
