<svg width="48" height="41" viewBox="0 0 48 41" fill="none" xmlns="http://www.w3.org/2000/svg">
<path d="M33.2247 4.82493C27.7302 2.44569 21.1231 5.36823 20.4631 11.5937C20.1941 14.1301 20.0003 17.1276 20.0003 20.5C20.0003 23.8724 20.1941 26.8699 20.4631 29.4063C21.1231 35.6318 27.7302 38.5543 33.2247 36.1751L33.6743 35.9804C39.9534 33.2614 44 27.1947 44 20.5C44 13.8053 39.9534 7.73859 33.6743 5.01961L33.2247 4.82493ZM16.7432 10.6178C17.7687 10.2181 18.2675 9.08413 17.8573 8.08494C17.4471 7.08576 16.2832 6.59975 15.2576 6.99942L5.25773 10.8966C4.23218 11.2962 3.73335 12.4302 4.14358 13.4294C4.5538 14.4286 5.71772 14.9146 6.74327 14.515L16.7432 10.6178ZM17.8573 17.8278C18.2675 18.827 17.7687 19.9611 16.7432 20.3607L6.74327 24.2578C5.71772 24.6575 4.5538 24.1715 4.14358 23.1723C3.73335 22.1731 4.23218 21.039 5.25773 20.6393L15.2576 16.7422C16.2832 16.3426 17.4471 16.8285 17.8573 17.8278ZM16.7432 30.1035C17.7687 29.7039 18.2675 28.5698 17.8573 27.5706C17.4471 26.5714 16.2832 26.0854 15.2576 26.4851L5.25773 30.3822C4.23218 30.7818 3.73335 31.9159 4.14358 32.9151C4.5538 33.9144 5.71772 34.4003 6.74327 34.0007L16.7432 30.1035Z" fill="#F0EEFF"/>
</svg>
