<svg width="48" height="48" viewBox="0 0 48 48" fill="none" xmlns="http://www.w3.org/2000/svg">
<path fill-rule="evenodd" clip-rule="evenodd" d="M24 4C12.9543 4 4 12.9543 4 24C4 35.0456 12.9543 44 24 44C35.0456 44 44 35.0456 44 24C44 12.9543 35.0456 4 24 4ZM21.4986 14.3149C22.2958 14.1097 23.1336 14 24 14C29.5228 14 34 18.4772 34 24C34 26.5624 33.0388 28.8956 31.4542 30.6662C30.7176 31.4892 30.7876 32.7536 31.6106 33.4902C32.4336 34.227 33.698 34.1568 34.4346 33.3338C36.6504 30.8582 38 27.5844 38 24C38 16.268 31.732 10 24 10C22.7946 10 21.6218 10.1528 20.5014 10.4412C19.4318 10.7165 18.7878 11.8069 19.0631 12.8766C19.3384 13.9463 20.4288 14.5903 21.4986 14.3149ZM14.3149 21.4986C14.5903 20.4288 13.9463 19.3384 12.8766 19.0631C11.8069 18.7878 10.7165 19.4318 10.4412 20.5014C10.1528 21.6218 10 22.7946 10 24C10 27.5844 11.3496 30.8582 13.5653 33.3338C14.302 34.1568 15.5663 34.227 16.3894 33.4902C17.2125 32.7536 17.2825 31.4892 16.5458 30.6662C14.9612 28.8956 14 26.5624 14 24C14 23.1336 14.1097 22.2958 14.3149 21.4986ZM24 28C26.2092 28 28 26.2092 28 24C28 21.7908 26.2092 20 24 20C23.6416 20 23.2944 20.0472 22.964 20.1354L15.4142 12.5858C14.6332 11.8047 13.3668 11.8047 12.5858 12.5858C11.8047 13.3668 11.8047 14.6332 12.5858 15.4142L20.1354 22.964C20.0472 23.2944 20 23.6416 20 24C20 26.2092 21.7908 28 24 28Z" fill="#F0EEFF"/>
</svg>
