<svg width="44" height="48" viewBox="0 0 44 48" fill="none" xmlns="http://www.w3.org/2000/svg">
<path d="M10.349 30.608C12.8237 30.9114 15.6259 31.3686 18.4435 32.0598C22.5409 33.0648 26.129 34.9936 28.783 36.7554L29.6802 37.3685L30.4957 37.957L31.2253 38.5104L31.8649 39.018L32.4103 39.4691L32.8574 39.853C34.5764 41.3566 33.4076 43.8099 31.4618 43.9895L31.234 44H13.7141C10.2865 44 7.43669 42.3092 5.34855 39.7482C3.77091 37.8134 3.63843 35.3826 4.63399 33.4902C5.64195 31.5742 7.77092 30.2918 10.349 30.608ZM36.2951 4C38.116 4 38.9009 5.68071 39.2862 7.22074L39.4066 7.75548C39.4243 7.84264 39.4408 7.92857 39.4563 8.0129C39.7499 9.60626 39.9078 11.6969 39.9694 13.8432C40.0913 18.0948 39.8447 23.0486 39.3043 25.4338C38.3613 29.5978 36.978 32.4916 35.3252 34.2364C33.64 36.0158 31.3665 36.8182 29.2681 35.7888C27.6608 35.0002 26.7003 33.126 26.1731 31.5264C25.5267 29.5656 25.3019 27.033 26.2076 24.3676C26.6367 23.1042 27.407 22.0831 28.2549 21.1139L28.9945 20.2914C29.8959 19.3027 30.7998 18.3112 31.4142 17.1056C32.3111 15.3456 32.5565 13.4199 32.6318 11.4856L32.6605 10.3252L32.6784 9.20713C32.6817 9.11564 32.6856 9.02348 32.6905 8.93085L32.7302 8.37078C32.9275 6.21329 33.6803 4 36.2951 4ZM11.0686 6.43826C11.9477 7.12828 12.0902 8.38686 11.3869 9.2494L10.9118 9.83212C9.588 11.4556 9.63923 13.7562 10.9855 15.3181L11.2365 15.5858C14.292 18.5836 14.5614 23.3562 11.8621 26.6666L11.3869 27.2494C10.6836 28.112 9.40083 28.2518 8.52172 27.5618C7.6426 26.8718 7.50007 25.6132 8.20336 24.7506L8.67852 24.1678C10.0023 22.5445 9.95104 20.2438 8.60474 18.6819L8.35373 18.4142C5.29827 15.4164 5.02884 10.6439 7.72821 7.33334L8.20336 6.7506C8.90665 5.88808 10.1895 5.74824 11.0686 6.43826ZM16.3572 6.7506C17.0605 5.88808 18.3434 5.74824 19.2224 6.43826C20.0339 7.0752 20.2178 8.1966 19.6881 9.04376L19.5408 9.2494L19.0656 9.83212C17.7418 11.4556 17.7931 13.7562 19.1393 15.3181L19.3903 15.5858C22.3404 18.4802 22.6934 23.0292 20.2846 26.3191L20.0159 26.6666L19.5408 27.2494C18.8375 28.112 17.5547 28.2518 16.6756 27.5618C15.8641 26.9249 15.6802 25.8035 16.2099 24.9563L16.3572 24.7506L16.8324 24.1678C18.156 22.5445 18.1049 20.2438 16.7586 18.6819L16.5076 18.4142C13.5575 15.5198 13.2046 10.9709 15.6134 7.68089L15.8821 7.33334L16.3572 6.7506Z" fill="#F0EEFF"/>
</svg>
