<svg width="48" height="44" viewBox="0 0 48 44" fill="none" xmlns="http://www.w3.org/2000/svg">
<path fill-rule="evenodd" clip-rule="evenodd" d="M22.9474 4C24.1101 4 25.0526 4.94811 25.0526 6.11765C25.0526 7.28718 24.1101 8.23529 22.9474 8.23529H20.8421V10.3529H26.6608C27.3145 10.3529 27.9592 10.506 28.544 10.8001L35.3566 14.2265C36.7832 14.9439 37.6842 16.4104 37.6842 18.0147V23.0588H39.7895V20.9412C39.7895 19.7716 40.732 18.8235 41.8947 18.8235C43.0575 18.8235 44 19.7716 44 20.9412V29.4118C44 30.5813 43.0575 31.5294 41.8947 31.5294C40.732 31.5294 39.7895 30.5813 39.7895 29.4118V27.2941H37.6842V30.4706C37.6842 31.8036 37.0602 33.059 36 33.8588L28.9825 39.1529C28.2537 39.7027 27.3672 40 26.4562 40H8.21053C5.88512 40 4 38.1039 4 35.7647L4 14.5882C4 12.2491 5.88512 10.3529 8.21053 10.3529H16.6316V8.23529H14.5263C13.3636 8.23529 12.4211 7.28718 12.4211 6.11765C12.4211 4.94811 13.3636 4 14.5263 4L22.9474 4ZM20.8726 18.0665C19.9468 17.5077 18.7657 17.7482 18.1227 18.5884L17.9842 18.7928L14.8455 24.055C14.0376 25.4093 14.9186 27.1137 16.4257 27.2808L16.6688 27.2941H19.2291L17.9842 29.3811C17.386 30.384 17.7093 31.6846 18.7063 32.2865C19.6322 32.8451 20.8132 32.6047 21.4563 31.7646L21.5947 31.5601L24.7335 26.298C25.5413 24.9439 24.6604 23.2392 23.1531 23.0722L22.9101 23.0588H20.3499L21.5947 20.9719C22.1928 19.969 21.8697 18.6682 20.8726 18.0665Z" fill="#F0EEFF"/>
</svg>
